M48
METRIC,LZ,000.000
;FILE_FORMAT=3:3
;TYPE=PLATED
;Layer: PTH_Through
;EasyEDA v6.5.51, 2025-11-08 20:21:58
;9dbb619460574df3a83456d1593f66c6,c2dd228c5626426dab0286b5437c322d,10
;Gerber Generator version 0.2
;Holesize 1 = 0.254 mm
T01C0.254
;Holesize 2 = 0.800 mm
T02C0.800
;Holesize 3 = 0.889 mm
T03C0.889
;Holesize 4 = 0.915 mm
T04C0.915
;Holesize 5 = 1.101 mm
T05C1.101
%
G05
G90
T01
X025146Y038100
X026670Y038100
X031877Y036957
X033528Y038100
X025400Y019050
X025908Y020447
X032258Y038989
X024638Y017145
X024511Y026924
X030607Y040005
X041148Y038100
X023749Y018288
X023368Y020828
X023495Y009906
X019685Y012573
X017018Y011684
X016256Y014986
X027805Y021229
X013589Y013877
X011659Y007747
X022667Y042926
X022667Y035052
X022667Y037537
X033401Y031634
X030226Y034417
X024003Y025273
X027051Y025314
X025146Y025273
X020320Y010287
X021844Y013589
X029591Y023622
X053213Y024765
X044069Y022733
X041924Y020715
X046609Y020066
X046609Y024511
X070104Y019050
X071882Y021209
X075565Y024257
X073533Y023114
X076200Y028321
X074168Y029718
X072009Y032766
X069596Y034290
X067310Y034544
X065786Y032385
X060071Y031115
X056769Y031115
X053975Y026543
X053975Y030353
X054483Y020828
X057277Y018034
X061341Y017145
X063119Y012446
X072390Y013589
X077470Y015113
X078232Y019177
X082931Y021082
X081407Y030353
X080264Y035306
X075565Y036957
X074676Y040894
X065151Y039878
X061722Y038608
X057277Y035306
X055880Y030353
X043942Y028321
X043053Y034417
X021590Y033147
X062484Y023876
X061087Y026035
X066802Y019685
X065024Y021717
X062484Y029210
X064262Y030988
X021336Y021971
X030226Y032385
X033528Y033528
X036449Y033655
X022352Y045593
X024511Y046863
X029210Y040005
X032385Y040640
X034290Y041910
X032385Y027559
X036703Y026035
X036830Y028321
X041021Y028956
X041148Y031877
X037973Y035306
X041148Y035687
X041148Y039370
X007239Y024257
X005842Y027940
X004318Y030226
X006604Y011557
X010541Y008509
X018923Y009906
X022225Y010033
X041910Y016383
X042291Y020066
X057785Y012446
X054610Y015367
X051943Y018415
X060706Y009652
X075184Y011811
X077216Y013843
X081534Y012954
X079502Y012446
X084328Y016002
X085852Y020320
X085725Y018542
X083566Y018542
X089916Y023876
X088138Y021463
X085471Y025654
X085471Y027305
X084074Y028829
X080264Y027432
X080264Y024384
X076327Y026416
X085725Y035052
X082931Y037846
X080010Y040640
X077343Y043434
X060452Y043434
X057785Y040767
X060325Y040894
X054737Y037973
X051054Y035687
X054229Y032766
X031369Y025146
X027051Y023495
X026543Y026797
X030734Y022606
X028067Y022606
X030099Y017018
X027178Y019304
X026035Y018288
X030353Y016002
X027940Y013462
X015966Y035114
X015966Y037568
X085471Y041275
X086106Y042545
X086487Y043942
X089154Y044958
X089408Y046482
X080645Y022352
X081915Y024384
X084074Y024384
X085471Y024384
X080264Y026416
X079248Y026670
X089408Y011938
X088519Y010668
X088773Y013208
X089408Y015875
X090043Y018923
X090678Y029210
X088646Y038735
X063627Y048641
X035052Y038862
X035941Y041402
X003302Y027940
X005842Y030480
X026543Y043053
X038227Y006985
X035941Y006985
X033020Y006858
X030353Y006858
X038100Y017780
X038989Y017780
X039878Y017780
X034163Y013716
X032385Y017907
X033528Y017907
X034925Y017907
X017399Y013335
X020447Y014986
X023495Y015367
X018034Y011811
X062611Y036195
X061214Y034290
X051308Y039116
X048768Y042418
X024384Y034925
X025654Y033655
X021082Y037592
X021082Y035052
X024511Y037719
X022733Y021463
X021336Y021082
X025146Y006858
X045085Y013589
X042164Y018288
X045339Y018288
X057023Y030226
X083820Y021590
X060198Y019939
X062357Y018796
X060452Y021844
X062738Y017399
X075311Y033782
X074041Y034671
X010668Y013970
X013081Y011557
X021209Y008128
X021590Y006858
X025781Y039243
X030734Y036195
X030353Y038227
X025146Y035941
X009652Y041910
X011938Y041910
X010795Y041910
X015621Y040005
X059436Y022987
X046609Y015875
X028702Y007493
X013589Y019304
X013589Y017018
X018923Y015621
X013589Y018034
X021844Y029337
X068834Y015621
X074803Y008763
X068834Y037211
X073533Y042926
X056515Y026543
X051435Y027559
X048641Y028956
X045974Y028829
X049149Y017907
X051054Y011049
X053467Y007874
X069977Y002159
X050927Y032893
X048641Y033147
X046101Y034290
X026670Y009779
X059309Y032766
X077673Y019660
X077038Y032410
X005309Y039345
X009703Y039395
X015966Y030207
X015966Y027753
X015966Y025299
X015966Y022845
X008306Y035331
X006172Y035331
X003531Y035382
X001600Y035382
X011252Y016281
X018644Y007214
X017755Y009474
X005228Y049270
X019736Y050724
T02
X007159Y044721G85X008259Y044721
X002409Y044721G85X003509Y044721
X002409Y037321G85X003509Y037321
X007159Y037321G85X008259Y037321
T03
X022881Y050794
X025421Y050794
X027961Y050794
X030501Y050794
X033041Y050794
X035581Y050794
X038121Y050794
X040661Y050794
X062505Y050794
X059965Y050794
X057425Y050794
X054885Y050794
X052345Y050794
X049805Y050794
X047265Y050794
X044725Y050794
X026945Y002534
X029485Y002534
X032025Y002534
X034565Y002534
X037105Y002534
X039645Y002534
X042185Y002534
X044725Y002534
X067585Y050794
X070125Y050794
X072665Y050794
X075205Y050794
X077745Y050794
X080285Y050794
X082825Y050794
X085365Y050794
X072665Y002534
X075205Y002534
X077745Y002534
X080285Y002534
X082825Y002534
X085365Y002534
X087905Y002534
X090445Y002534
X049805Y002534
X052345Y002534
X054885Y002534
X057425Y002534
X059965Y002534
X062505Y002534
X065045Y002534
X067585Y002534
T04
X038100Y041223
X038100Y043763
X040640Y041223
X040640Y043763
T05
X092985Y050793
X095525Y050794
X092985Y048254
X095525Y048254
X092985Y045714
X095525Y045714
X092985Y043174
X095525Y043174
X092985Y040634
X095525Y040634
X092985Y038094
X095525Y038094
X092985Y035554
X095525Y035554
X092985Y033014
X095525Y033014
X092985Y030474
X095525Y030474
X092985Y027934
X095525Y027934
X092985Y025394
X095525Y025394
X092985Y022854
X095525Y022854
X092985Y020314
X095525Y020314
X092985Y017774
X095525Y017774
X092985Y015234
X095525Y015234
X092985Y012694
X095525Y012694
X092985Y010154
X095525Y010154
X092985Y007614
X095525Y007614
M30
