G04 Layer: BottomSolderMaskLayer*
G04 EasyEDA v6.5.51, 2025-11-08 20:21:58*
G04 9dbb619460574df3a83456d1593f66c6,c2dd228c5626426dab0286b5437c322d,10*
G04 Gerber Generator version 0.2*
G04 Scale: 100 percent, Rotated: No, Reflected: No *
G04 Dimensions in millimeters *
G04 leading zeros omitted , absolute positions ,4 integer and 5 decimal *
%FSLAX45Y45*%
%MOMM*%

%AMMACRO1*4,1,8,-0.8085,-0.8382,-0.8382,-0.8084,-0.8382,0.8085,-0.8085,0.8382,0.8084,0.8382,0.8382,0.8085,0.8382,-0.8084,0.8084,-0.8382,-0.8085,-0.8382,0*%
%AMMACRO2*4,1,8,-0.7831,-0.8128,-0.8128,-0.783,-0.8128,0.7831,-0.7831,0.8128,0.783,0.8128,0.8128,0.7831,0.8128,-0.783,0.783,-0.8128,-0.7831,-0.8128,0*%
%AMMACRO3*4,1,8,-0.8711,-0.9008,-0.9008,-0.871,-0.9008,0.8711,-0.8711,0.9008,0.871,0.9008,0.9008,0.8711,0.9008,-0.871,0.871,-0.9008,-0.8711,-0.9008,0*%
%ADD10O,2.601595X1.601597*%
%ADD11MACRO1*%
%ADD12C,1.6764*%
%ADD13MACRO2*%
%ADD14C,1.6256*%
%ADD15MACRO3*%
%ADD16C,1.8016*%
%ADD17C,0.0136*%

%LPD*%
D10*
G01*
X770915Y4472104D03*
G01*
X295910Y4472104D03*
G01*
X295910Y3732100D03*
G01*
X770915Y3732100D03*
D11*
G01*
X2288082Y5079367D03*
D12*
G01*
X2542082Y5079367D03*
G01*
X2796082Y5079367D03*
G01*
X3050082Y5079367D03*
G01*
X3304082Y5079367D03*
G01*
X3558082Y5079367D03*
G01*
X3812082Y5079367D03*
G01*
X4066082Y5079367D03*
D11*
G01*
X6250482Y5079367D03*
D12*
G01*
X5996482Y5079367D03*
G01*
X5742482Y5079367D03*
G01*
X5488482Y5079367D03*
G01*
X5234482Y5079367D03*
G01*
X4980482Y5079367D03*
G01*
X4726482Y5079367D03*
G01*
X4472482Y5079367D03*
D11*
G01*
X2694482Y253367D03*
D12*
G01*
X2948482Y253367D03*
G01*
X3202482Y253367D03*
G01*
X3456482Y253367D03*
G01*
X3710482Y253367D03*
G01*
X3964482Y253367D03*
G01*
X4218482Y253367D03*
G01*
X4472482Y253367D03*
D11*
G01*
X6758482Y5079367D03*
D12*
G01*
X7012482Y5079367D03*
G01*
X7266482Y5079367D03*
G01*
X7520482Y5079367D03*
G01*
X7774482Y5079367D03*
G01*
X8028482Y5079367D03*
G01*
X8282482Y5079367D03*
G01*
X8536482Y5079367D03*
D11*
G01*
X7266482Y253367D03*
D12*
G01*
X7520482Y253367D03*
G01*
X7774482Y253367D03*
G01*
X8028482Y253367D03*
G01*
X8282482Y253367D03*
G01*
X8536482Y253367D03*
G01*
X8790482Y253367D03*
G01*
X9044482Y253367D03*
D11*
G01*
X4980482Y253367D03*
D12*
G01*
X5234482Y253367D03*
G01*
X5488482Y253367D03*
G01*
X5742482Y253367D03*
G01*
X5996482Y253367D03*
G01*
X6250482Y253367D03*
G01*
X6504482Y253367D03*
G01*
X6758482Y253367D03*
D13*
G01*
X3810000Y4122331D03*
D14*
G01*
X3809999Y4376333D03*
G01*
X4063999Y4122333D03*
G01*
X4063999Y4376333D03*
D15*
G01*
X9298482Y5079354D03*
D16*
G01*
X9552508Y5079367D03*
G01*
X9298508Y4825367D03*
G01*
X9552508Y4825367D03*
G01*
X9298508Y4571367D03*
G01*
X9552508Y4571367D03*
G01*
X9298508Y4317367D03*
G01*
X9552508Y4317367D03*
G01*
X9298508Y4063367D03*
G01*
X9552508Y4063367D03*
G01*
X9298508Y3809367D03*
G01*
X9552508Y3809367D03*
G01*
X9298508Y3555367D03*
G01*
X9552508Y3555367D03*
G01*
X9298508Y3301367D03*
G01*
X9552508Y3301367D03*
G01*
X9298508Y3047367D03*
G01*
X9552508Y3047367D03*
G01*
X9298508Y2793367D03*
G01*
X9552508Y2793367D03*
G01*
X9298508Y2539367D03*
G01*
X9552508Y2539367D03*
G01*
X9298508Y2285367D03*
G01*
X9552508Y2285367D03*
G01*
X9298508Y2031367D03*
G01*
X9552508Y2031367D03*
G01*
X9298508Y1777367D03*
G01*
X9552508Y1777367D03*
G01*
X9298508Y1523367D03*
G01*
X9552508Y1523367D03*
G01*
X9298508Y1269367D03*
G01*
X9552508Y1269367D03*
G01*
X9298508Y1015367D03*
G01*
X9552508Y1015367D03*
G01*
X9298508Y761367D03*
G01*
X9552508Y761367D03*
M02*
