G04 Layer: TopSolderMaskLayer*
G04 EasyEDA v6.5.51, 2025-11-08 20:21:58*
G04 9dbb619460574df3a83456d1593f66c6,c2dd228c5626426dab0286b5437c322d,10*
G04 Gerber Generator version 0.2*
G04 Scale: 100 percent, Rotated: No, Reflected: No *
G04 Dimensions in millimeters *
G04 leading zeros omitted , absolute positions ,4 integer and 5 decimal *
%FSLAX45Y45*%
%MOMM*%

%AMMACRO1*4,1,8,-1.4211,-1.5557,-1.4508,-1.526,-1.4508,1.526,-1.4211,1.5557,1.4211,1.5557,1.4508,1.526,1.4508,-1.526,1.4211,-1.5557,-1.4211,-1.5557,0*%
%AMMACRO2*4,1,8,-1.526,-1.4508,-1.5557,-1.4211,-1.5557,1.4211,-1.526,1.4508,1.526,1.4508,1.5557,1.4211,1.5557,-1.4211,1.526,-1.4508,-1.526,-1.4508,0*%
%AMMACRO3*4,1,8,-0.7635,-0.9148,-0.7933,-0.885,-0.7933,0.8851,-0.7635,0.9148,0.7635,0.9148,0.7933,0.8851,0.7933,-0.885,0.7635,-0.9148,-0.7635,-0.9148,0*%
%AMMACRO4*4,1,8,-0.8386,-0.8508,-0.8683,-0.821,-0.8683,0.8211,-0.8386,0.8508,0.8385,0.8508,0.8683,0.8211,0.8683,-0.821,0.8385,-0.8508,-0.8386,-0.8508,0*%
%AMMACRO5*4,1,8,-0.4021,-0.6756,-0.4318,-0.6459,-0.4318,0.6459,-0.4021,0.6756,0.402,0.6756,0.4318,0.6459,0.4318,-0.6459,0.402,-0.6756,-0.4021,-0.6756,0*%
%AMMACRO6*4,1,8,-0.4021,-0.6758,-0.4318,-0.646,-0.4318,0.646,-0.4021,0.6758,0.402,0.6758,0.4318,0.646,0.4318,-0.646,0.402,-0.6758,-0.4021,-0.6758,0*%
%AMMACRO7*4,1,8,-0.5711,-0.3508,-0.6008,-0.321,-0.6008,0.3211,-0.5711,0.3508,0.571,0.3508,0.6008,0.3211,0.6008,-0.321,0.571,-0.3508,-0.5711,-0.3508,0*%
%AMMACRO8*4,1,8,-1.1711,-0.3008,-1.2008,-0.271,-1.2008,0.2711,-1.1711,0.3008,1.171,0.3008,1.2008,0.2711,1.2008,-0.271,1.171,-0.3008,-1.1711,-0.3008,0*%
%AMMACRO9*4,1,8,-1.0711,-0.6508,-1.1008,-0.621,-1.1008,0.6211,-1.0711,0.6508,1.071,0.6508,1.1008,0.6211,1.1008,-0.621,1.071,-0.6508,-1.0711,-0.6508,0*%
%AMMACRO10*4,1,8,-1.071,-0.6508,-1.1008,-0.621,-1.1008,0.6211,-1.071,0.6508,1.071,0.6508,1.1008,0.6211,1.1008,-0.621,1.071,-0.6508,-1.071,-0.6508,0*%
%AMMACRO11*4,1,8,-0.5398,-0.3168,-0.5696,-0.287,-0.5696,0.2871,-0.5398,0.3168,0.5398,0.3168,0.5696,0.2871,0.5696,-0.287,0.5398,-0.3168,-0.5398,-0.3168,0*%
%AMMACRO12*4,1,8,-0.5398,-0.3168,-0.5696,-0.287,-0.5696,0.287,-0.5398,0.3168,0.5398,0.3168,0.5696,0.287,0.5696,-0.287,0.5398,-0.3168,-0.5398,-0.3168,0*%
%AMMACRO13*4,1,8,-0.7095,-0.6171,-0.7393,-0.5873,-0.7393,0.5873,-0.7095,0.6171,0.7095,0.6171,0.7393,0.5873,0.7393,-0.5873,0.7095,-0.6171,-0.7095,-0.6171,0*%
%AMMACRO14*4,1,8,-0.8085,-0.8382,-0.8382,-0.8084,-0.8382,0.8085,-0.8085,0.8382,0.8084,0.8382,0.8382,0.8085,0.8382,-0.8084,0.8084,-0.8382,-0.8085,-0.8382,0*%
%AMMACRO15*4,1,8,-0.7831,-0.8128,-0.8128,-0.783,-0.8128,0.7831,-0.7831,0.8128,0.783,0.8128,0.8128,0.7831,0.8128,-0.783,0.783,-0.8128,-0.7831,-0.8128,0*%
%AMMACRO16*4,1,8,-0.8711,-0.9008,-0.9008,-0.871,-0.9008,0.8711,-0.8711,0.9008,0.871,0.9008,0.9008,0.8711,0.9008,-0.871,0.871,-0.9008,-0.8711,-0.9008,0*%
%AMMACRO17*4,1,8,-0.8851,-0.7933,-0.9148,-0.7635,-0.9148,0.7635,-0.8851,0.7933,0.885,0.7933,0.9148,0.7635,0.9148,-0.7635,0.885,-0.7933,-0.8851,-0.7933,0*%
%AMMACRO18*4,1,8,0.0649,-1.1868,-1.1868,0.0649,-1.1868,0.107,-0.107,1.1868,-0.0649,1.1868,1.1868,-0.0649,1.1868,-0.107,0.107,-1.1868,0.0649,-1.1868,0*%
%AMMACRO19*4,1,8,-0.107,-1.1868,-1.1868,-0.107,-1.1868,-0.0649,0.0649,1.1868,0.107,1.1868,1.1868,0.107,1.1868,0.0649,-0.0649,-1.1868,-0.107,-1.1868,0*%
%AMMACRO20*4,1,8,-0.7211,-0.6508,-0.7508,-0.621,-0.7508,0.6211,-0.7211,0.6508,0.721,0.6508,0.7508,0.6211,0.7508,-0.621,0.721,-0.6508,-0.7211,-0.6508,0*%
%AMMACRO21*4,1,8,-0.021,-6.7683,-6.7683,-0.021,-6.7683,0.021,-0.021,6.7683,0.021,6.7683,6.7683,0.021,6.7683,-0.021,0.021,-6.7683,-0.021,-6.7683,0*%
%AMMACRO22*1,1,$1,$2,$3*1,1,$1,$4,$5*20,1,$1,$2,$3,$4,$5,0*%
%AMMACRO23*4,1,8,-0.8211,-0.4008,-0.8508,-0.371,-0.8508,0.3711,-0.8211,0.4008,0.821,0.4008,0.8508,0.3711,0.8508,-0.371,0.821,-0.4008,-0.8211,-0.4008,0*%
%AMMACRO24*4,1,8,-0.7711,-0.6508,-0.8008,-0.621,-0.8008,0.6211,-0.7711,0.6508,0.771,0.6508,0.8008,0.6211,0.8008,-0.621,0.771,-0.6508,-0.7711,-0.6508,0*%
%AMMACRO25*4,1,8,-1.1211,-0.6508,-1.1508,-0.621,-1.1508,0.6211,-1.1211,0.6508,1.121,0.6508,1.1508,0.6211,1.1508,-0.621,1.121,-0.6508,-1.1211,-0.6508,0*%
%AMMACRO26*4,1,8,-0.7711,-0.8508,-0.8008,-0.821,-0.8008,0.8211,-0.7711,0.8508,0.771,0.8508,0.8008,0.8211,0.8008,-0.821,0.771,-0.8508,-0.7711,-0.8508,0*%
%ADD10MACRO1*%
%ADD11MACRO2*%
%ADD12MACRO3*%
%ADD13MACRO4*%
%ADD14MACRO5*%
%ADD15MACRO6*%
%ADD16C,0.0158*%
%ADD17MACRO7*%
%ADD18O,0.670001X2.051812*%
%ADD19MACRO8*%
%ADD20O,2.601595X1.601597*%
%ADD21MACRO9*%
%ADD22MACRO10*%
%ADD23MACRO11*%
%ADD24MACRO12*%
%ADD25MACRO13*%
%ADD26MACRO14*%
%ADD27C,1.6764*%
%ADD28MACRO15*%
%ADD29C,1.6256*%
%ADD30MACRO16*%
%ADD31C,1.8016*%
%ADD32MACRO17*%
%ADD33MACRO18*%
%ADD34MACRO19*%
%ADD35MACRO20*%
%ADD36O,0.731596X2.351608*%
%ADD37O,2.11709X0.465607*%
%ADD38MACRO21*%
%ADD39MACRO22,0.3816X-0.4667X0.4667X0.4667X-0.4667*%
%ADD40MACRO22,0.3816X-0.4667X-0.4667X0.4667X0.4667*%
%ADD41MACRO23*%
%ADD42MACRO24*%
%ADD43MACRO25*%
%ADD44MACRO26*%

%LPD*%
D10*
G01*
X2875000Y2603500D03*
G01*
X3474999Y2603500D03*
D11*
G01*
X3910606Y2132129D03*
G01*
X3910606Y1532130D03*
D10*
G01*
X4490999Y3187700D03*
G01*
X3891000Y3187700D03*
G01*
X4490999Y2603500D03*
G01*
X3891000Y2603500D03*
D12*
G01*
X5417060Y4093763D03*
G01*
X5098559Y4093763D03*
G01*
X5417050Y4381149D03*
G01*
X5098549Y4381149D03*
D13*
G01*
X4863439Y4092265D03*
G01*
X4559960Y4092265D03*
G01*
X4863429Y4379653D03*
G01*
X4559950Y4379653D03*
D14*
G01*
X2844787Y2122878D03*
D15*
G01*
X2844787Y1507881D03*
G01*
X2463787Y1507881D03*
D14*
G01*
X2463787Y2122878D03*
G01*
X2590787Y2122878D03*
D15*
G01*
X2590787Y1507881D03*
G01*
X2717787Y1507881D03*
D14*
G01*
X2717787Y2122878D03*
D17*
G01*
X4551640Y1741619D03*
G01*
X4551640Y1551627D03*
G01*
X4291618Y1551627D03*
G01*
X4291618Y1646623D03*
G01*
X4291618Y1741619D03*
D13*
G01*
X1748388Y2529888D03*
G01*
X1444909Y2529888D03*
G01*
X1748388Y2775277D03*
G01*
X1444909Y2775277D03*
G01*
X1748388Y3020667D03*
G01*
X1444909Y3020667D03*
G01*
X1748388Y3266053D03*
G01*
X1444909Y3266053D03*
G01*
X1748386Y3756832D03*
G01*
X1444906Y3756832D03*
G01*
X1748386Y3511440D03*
G01*
X1444906Y3511440D03*
G01*
X1748388Y2284498D03*
G01*
X1444909Y2284498D03*
D18*
G01*
X3138246Y1565988D03*
G01*
X3265246Y1565988D03*
G01*
X3392246Y1565988D03*
G01*
X3519246Y1565988D03*
G01*
X3138246Y2107008D03*
G01*
X3265246Y2107008D03*
G01*
X3392246Y2107008D03*
G01*
X3519246Y2107008D03*
D19*
G01*
X770906Y4262106D03*
G01*
X770906Y4182106D03*
G01*
X770906Y4102106D03*
G01*
X770906Y4022106D03*
G01*
X770906Y3942106D03*
D20*
G01*
X770915Y4472104D03*
G01*
X295910Y4472104D03*
G01*
X295910Y3732100D03*
G01*
X770915Y3732100D03*
D21*
G01*
X822783Y4726967D03*
D22*
G01*
X222783Y4726967D03*
D21*
G01*
X822783Y5126967D03*
D22*
G01*
X222783Y5126967D03*
D23*
G01*
X3312880Y4344330D03*
G01*
X3312880Y4154331D03*
D24*
G01*
X3533131Y4249331D03*
D25*
G01*
X1480460Y4156730D03*
G01*
X1480460Y4349983D03*
D26*
G01*
X2288082Y5079367D03*
D27*
G01*
X2542082Y5079367D03*
G01*
X2796082Y5079367D03*
G01*
X3050082Y5079367D03*
G01*
X3304082Y5079367D03*
G01*
X3558082Y5079367D03*
G01*
X3812082Y5079367D03*
G01*
X4066082Y5079367D03*
D26*
G01*
X6250482Y5079367D03*
D27*
G01*
X5996482Y5079367D03*
G01*
X5742482Y5079367D03*
G01*
X5488482Y5079367D03*
G01*
X5234482Y5079367D03*
G01*
X4980482Y5079367D03*
G01*
X4726482Y5079367D03*
G01*
X4472482Y5079367D03*
D26*
G01*
X2694482Y253367D03*
D27*
G01*
X2948482Y253367D03*
G01*
X3202482Y253367D03*
G01*
X3456482Y253367D03*
G01*
X3710482Y253367D03*
G01*
X3964482Y253367D03*
G01*
X4218482Y253367D03*
G01*
X4472482Y253367D03*
D26*
G01*
X6758482Y5079367D03*
D27*
G01*
X7012482Y5079367D03*
G01*
X7266482Y5079367D03*
G01*
X7520482Y5079367D03*
G01*
X7774482Y5079367D03*
G01*
X8028482Y5079367D03*
G01*
X8282482Y5079367D03*
G01*
X8536482Y5079367D03*
D26*
G01*
X7266482Y253367D03*
D27*
G01*
X7520482Y253367D03*
G01*
X7774482Y253367D03*
G01*
X8028482Y253367D03*
G01*
X8282482Y253367D03*
G01*
X8536482Y253367D03*
G01*
X8790482Y253367D03*
G01*
X9044482Y253367D03*
D26*
G01*
X4980482Y253367D03*
D27*
G01*
X5234482Y253367D03*
G01*
X5488482Y253367D03*
G01*
X5742482Y253367D03*
G01*
X5996482Y253367D03*
G01*
X6250482Y253367D03*
G01*
X6504482Y253367D03*
G01*
X6758482Y253367D03*
D28*
G01*
X3810000Y4122331D03*
D29*
G01*
X3809999Y4376333D03*
G01*
X4063999Y4122333D03*
G01*
X4063999Y4376333D03*
D30*
G01*
X9298482Y5079354D03*
D31*
G01*
X9552508Y5079367D03*
G01*
X9298508Y4825367D03*
G01*
X9552508Y4825367D03*
G01*
X9298508Y4571367D03*
G01*
X9552508Y4571367D03*
G01*
X9298508Y4317367D03*
G01*
X9552508Y4317367D03*
G01*
X9298508Y4063367D03*
G01*
X9552508Y4063367D03*
G01*
X9298508Y3809367D03*
G01*
X9552508Y3809367D03*
G01*
X9298508Y3555367D03*
G01*
X9552508Y3555367D03*
G01*
X9298508Y3301367D03*
G01*
X9552508Y3301367D03*
G01*
X9298508Y3047367D03*
G01*
X9552508Y3047367D03*
G01*
X9298508Y2793367D03*
G01*
X9552508Y2793367D03*
G01*
X9298508Y2539367D03*
G01*
X9552508Y2539367D03*
G01*
X9298508Y2285367D03*
G01*
X9552508Y2285367D03*
G01*
X9298508Y2031367D03*
G01*
X9552508Y2031367D03*
G01*
X9298508Y1777367D03*
G01*
X9552508Y1777367D03*
G01*
X9298508Y1523367D03*
G01*
X9552508Y1523367D03*
G01*
X9298508Y1269367D03*
G01*
X9552508Y1269367D03*
G01*
X9298508Y1015367D03*
G01*
X9552508Y1015367D03*
G01*
X9298508Y761367D03*
G01*
X9552508Y761367D03*
D32*
G01*
X2019299Y537710D03*
G01*
X2019299Y219209D03*
G01*
X2293619Y537710D03*
G01*
X2293619Y219209D03*
G01*
X3583531Y869449D03*
G01*
X3583531Y1187950D03*
G01*
X3322119Y869449D03*
G01*
X3322119Y1187950D03*
G01*
X3844937Y869459D03*
G01*
X3844937Y1187960D03*
G01*
X4106364Y869459D03*
G01*
X4106364Y1187960D03*
G01*
X2531402Y4408581D03*
G01*
X2531402Y4090080D03*
G01*
X2002101Y4408581D03*
G01*
X2002101Y4090080D03*
G01*
X1737453Y4408581D03*
G01*
X1737453Y4090080D03*
D33*
G01*
X5535505Y2170008D03*
G01*
X5310291Y1944794D03*
G01*
X6102771Y1602734D03*
G01*
X5877557Y1377520D03*
G01*
X8231291Y3163994D03*
G01*
X8456505Y3389208D03*
D34*
G01*
X6386405Y4014894D03*
G01*
X6161191Y4240108D03*
D33*
G01*
X7664025Y3731257D03*
G01*
X7889239Y3956471D03*
D34*
G01*
X5535490Y3164004D03*
G01*
X5310276Y3389218D03*
G01*
X7947657Y1886371D03*
G01*
X8172871Y1661157D03*
G01*
X7380391Y1319108D03*
G01*
X7605605Y1093894D03*
D33*
G01*
X5819139Y1886369D03*
G01*
X5593925Y1661154D03*
G01*
X6386405Y1319108D03*
G01*
X6161191Y1093894D03*
D34*
G01*
X5819124Y3447633D03*
G01*
X5593910Y3672847D03*
G01*
X8231291Y2170008D03*
G01*
X8456505Y1944794D03*
G01*
X6102771Y3731260D03*
G01*
X5877557Y3956474D03*
G01*
X7664025Y1602745D03*
G01*
X7889239Y1377530D03*
D33*
G01*
X7947647Y3447625D03*
G01*
X8172861Y3672840D03*
G01*
X7380391Y4014894D03*
G01*
X7605605Y4240108D03*
D32*
G01*
X4629246Y1187950D03*
G01*
X4629246Y869449D03*
G01*
X4367804Y1187955D03*
G01*
X4367804Y869454D03*
D35*
G01*
X8183100Y2569311D03*
G01*
X8403099Y2569311D03*
G01*
X8403099Y2739313D03*
G01*
X8183100Y2739313D03*
D36*
G01*
X266700Y2606093D03*
G01*
X393700Y2606093D03*
G01*
X520700Y2606093D03*
G01*
X647700Y2606093D03*
G01*
X266700Y3312111D03*
G01*
X393700Y3312111D03*
G01*
X520700Y3312111D03*
G01*
X647700Y3312111D03*
D37*
G01*
X3495116Y2968398D03*
G01*
X3495116Y3033397D03*
G01*
X3495116Y3098396D03*
G01*
X3495116Y3163394D03*
G01*
X3495116Y3228393D03*
G01*
X3495116Y3293391D03*
G01*
X3495116Y3358415D03*
G01*
X3495116Y3423414D03*
G01*
X3495116Y3488413D03*
G01*
X3495116Y3553411D03*
G01*
X3495116Y3618410D03*
G01*
X3495116Y3683408D03*
G01*
X3495116Y3748407D03*
G01*
X3495116Y3813406D03*
G01*
X2804083Y2968398D03*
G01*
X2804083Y3033397D03*
G01*
X2804083Y3098396D03*
G01*
X2804083Y3163394D03*
G01*
X2804083Y3228393D03*
G01*
X2804083Y3293391D03*
G01*
X2804083Y3358415D03*
G01*
X2804083Y3423414D03*
G01*
X2804083Y3488413D03*
G01*
X2804083Y3553411D03*
G01*
X2804083Y3618410D03*
G01*
X2804083Y3683408D03*
G01*
X2804083Y3748407D03*
G01*
X2804083Y3813406D03*
D38*
G01*
X6883398Y2667001D03*
D39*
G01*
X5914669Y2787220D03*
G01*
X5950000Y2822552D03*
G01*
X5985382Y2857908D03*
G01*
X6020714Y2893265D03*
G01*
X6056096Y2928622D03*
G01*
X6091428Y2963979D03*
G01*
X6126784Y2999336D03*
G01*
X6162141Y3034692D03*
G01*
X6197498Y3070049D03*
G01*
X6232855Y3105406D03*
G01*
X6268211Y3140763D03*
G01*
X6303568Y3176120D03*
G01*
X6338925Y3211476D03*
G01*
X6374282Y3246808D03*
G01*
X6409639Y3282190D03*
G01*
X6444995Y3317521D03*
G01*
X6480352Y3352904D03*
G01*
X6515684Y3388235D03*
G01*
X6551066Y3423617D03*
G01*
X6586397Y3458949D03*
G01*
X6621779Y3494305D03*
G01*
X6657111Y3529662D03*
G01*
X6692493Y3565019D03*
G01*
X6727825Y3600376D03*
G01*
X6763181Y3635733D03*
D40*
G01*
X7003618Y3635733D03*
G01*
X7038975Y3600376D03*
G01*
X7074331Y3565019D03*
G01*
X7109688Y3529662D03*
G01*
X7145019Y3494305D03*
G01*
X7180402Y3458949D03*
G01*
X7215733Y3423617D03*
G01*
X7251115Y3388235D03*
G01*
X7286447Y3352904D03*
G01*
X7321829Y3317521D03*
G01*
X7357160Y3282190D03*
G01*
X7392517Y3246808D03*
G01*
X7427874Y3211476D03*
G01*
X7463231Y3176120D03*
G01*
X7498587Y3140763D03*
G01*
X7533944Y3105406D03*
G01*
X7569301Y3070049D03*
G01*
X7604658Y3034692D03*
G01*
X7640015Y2999336D03*
G01*
X7675371Y2963979D03*
G01*
X7710728Y2928622D03*
G01*
X7746085Y2893265D03*
G01*
X7781417Y2857908D03*
G01*
X7816799Y2822552D03*
G01*
X7852130Y2787220D03*
D39*
G01*
X7852130Y2546784D03*
G01*
X7816773Y2511427D03*
G01*
X7781417Y2476070D03*
G01*
X7746060Y2440713D03*
G01*
X7710728Y2405382D03*
G01*
X7675346Y2370000D03*
G01*
X7640015Y2334668D03*
G01*
X7604633Y2299286D03*
G01*
X7569301Y2263955D03*
G01*
X7533919Y2228573D03*
G01*
X7498587Y2193241D03*
G01*
X7463231Y2157884D03*
G01*
X7427874Y2122528D03*
G01*
X7392517Y2087171D03*
G01*
X7357160Y2051814D03*
G01*
X7321803Y2016457D03*
G01*
X7286447Y1981100D03*
G01*
X7251090Y1945744D03*
G01*
X7215733Y1910387D03*
G01*
X7180376Y1875030D03*
G01*
X7145019Y1839673D03*
G01*
X7109663Y1804316D03*
G01*
X7074331Y1768985D03*
G01*
X7038949Y1733603D03*
G01*
X7003618Y1698271D03*
D40*
G01*
X6763181Y1698271D03*
G01*
X6727850Y1733603D03*
G01*
X6692493Y1768985D03*
G01*
X6657136Y1804316D03*
G01*
X6621779Y1839673D03*
G01*
X6586423Y1875030D03*
G01*
X6551066Y1910387D03*
G01*
X6515709Y1945744D03*
G01*
X6480352Y1981100D03*
G01*
X6444995Y2016457D03*
G01*
X6409639Y2051814D03*
G01*
X6374282Y2087171D03*
G01*
X6338925Y2122528D03*
G01*
X6303594Y2157884D03*
G01*
X6268211Y2193241D03*
G01*
X6232880Y2228573D03*
G01*
X6197498Y2263955D03*
G01*
X6162167Y2299286D03*
G01*
X6126784Y2334668D03*
G01*
X6091453Y2370000D03*
G01*
X6056096Y2405382D03*
G01*
X6020739Y2440713D03*
G01*
X5985382Y2476070D03*
G01*
X5950026Y2511427D03*
G01*
X5914669Y2546784D03*
D41*
G01*
X1511604Y1827695D03*
G01*
X1511604Y1717692D03*
G01*
X1511604Y1607693D03*
G01*
X1511604Y1497693D03*
G01*
X1511604Y1387693D03*
G01*
X1511604Y1277693D03*
G01*
X1511604Y1167693D03*
G01*
X1511604Y1057694D03*
G01*
X1511607Y1937697D03*
D42*
G01*
X1411610Y2057697D03*
D43*
G01*
X451609Y2057697D03*
G01*
X451606Y507685D03*
D44*
G01*
X1411610Y597687D03*
D32*
G01*
X2799280Y1187947D03*
G01*
X2799280Y869447D03*
G01*
X3060699Y1187950D03*
G01*
X3060699Y869449D03*
D12*
G01*
X2305550Y2531384D03*
G01*
X1987049Y2531384D03*
G01*
X2305550Y2776773D03*
G01*
X1987049Y2776773D03*
G01*
X2305550Y3022168D03*
G01*
X1987049Y3022168D03*
G01*
X2305550Y3267557D03*
G01*
X1987049Y3267557D03*
D32*
G01*
X2547419Y869449D03*
G01*
X2547419Y1187950D03*
G01*
X2285999Y869449D03*
G01*
X2285999Y1187950D03*
G01*
X2796049Y4090080D03*
G01*
X2796049Y4408581D03*
D12*
G01*
X2305552Y3758331D03*
G01*
X1987052Y3758331D03*
G01*
X2305552Y3512944D03*
G01*
X1987052Y3512944D03*
G01*
X2305550Y2286000D03*
G01*
X1987049Y2286000D03*
D32*
G01*
X2266749Y4408581D03*
G01*
X2266749Y4090080D03*
G01*
X3060699Y4408581D03*
G01*
X3060699Y4090080D03*
D17*
G01*
X4548618Y2104925D03*
G01*
X4548618Y1914933D03*
G01*
X4288595Y1914933D03*
G01*
X4288595Y2009929D03*
G01*
X4288595Y2104925D03*
M02*
